<mxfile host="app.diagrams.net" modified="2024-02-26T01:34:37.757Z" agent="Mozilla/5.0 (Macintosh; Intel Mac OS X 10_15_7) AppleWebKit/605.1.15 (KHTML, like Gecko) Version/17.1 Safari/605.1.15" etag="etBu6Zn1DbvraIuA9dF9" version="23.1.6" type="github" pages="2">
  <diagram id="R2lEEEUBdFMjLlhIrx00" name="Page-1">
    <mxGraphModel dx="1208" dy="719" grid="1" gridSize="10" guides="1" tooltips="1" connect="1" arrows="1" fold="1" page="1" pageScale="1" pageWidth="850" pageHeight="1100" math="0" shadow="0" extFonts="Permanent Marker^https://fonts.googleapis.com/css?family=Permanent+Marker">
      <root>
        <mxCell id="0" />
        <mxCell id="1" parent="0" />
        <mxCell id="B0g2YOAgR8PaHLATcJr6-1" value="team" style="rounded=0;whiteSpace=wrap;html=1;" parent="1" vertex="1">
          <mxGeometry x="100" y="450" width="70" height="30" as="geometry" />
        </mxCell>
        <mxCell id="B0g2YOAgR8PaHLATcJr6-3" value="&lt;u&gt;id&lt;/u&gt;" style="ellipse;whiteSpace=wrap;html=1;" parent="1" vertex="1">
          <mxGeometry x="10" y="400" width="70" height="30" as="geometry" />
        </mxCell>
        <mxCell id="B0g2YOAgR8PaHLATcJr6-4" value="name" style="ellipse;whiteSpace=wrap;html=1;" parent="1" vertex="1">
          <mxGeometry x="180" y="360" width="80" height="30" as="geometry" />
        </mxCell>
        <mxCell id="B0g2YOAgR8PaHLATcJr6-5" value="city" style="ellipse;whiteSpace=wrap;html=1;" parent="1" vertex="1">
          <mxGeometry x="210" y="410" width="80" height="30" as="geometry" />
        </mxCell>
        <mxCell id="B0g2YOAgR8PaHLATcJr6-6" value="homeport" style="ellipse;whiteSpace=wrap;html=1;" parent="1" vertex="1">
          <mxGeometry x="90" y="370" width="80" height="30" as="geometry" />
        </mxCell>
        <mxCell id="B0g2YOAgR8PaHLATcJr6-7" value="" style="endArrow=none;html=1;rounded=0;exitX=0.5;exitY=1;exitDx=0;exitDy=0;" parent="1" source="B0g2YOAgR8PaHLATcJr6-3" target="B0g2YOAgR8PaHLATcJr6-1" edge="1">
          <mxGeometry width="50" height="50" relative="1" as="geometry">
            <mxPoint x="80" y="430" as="sourcePoint" />
            <mxPoint x="130" y="440" as="targetPoint" />
          </mxGeometry>
        </mxCell>
        <mxCell id="B0g2YOAgR8PaHLATcJr6-9" value="" style="endArrow=none;html=1;rounded=0;entryX=0.5;entryY=0;entryDx=0;entryDy=0;exitX=0.5;exitY=1;exitDx=0;exitDy=0;" parent="1" source="B0g2YOAgR8PaHLATcJr6-6" target="B0g2YOAgR8PaHLATcJr6-1" edge="1">
          <mxGeometry width="50" height="50" relative="1" as="geometry">
            <mxPoint x="170" y="390" as="sourcePoint" />
            <mxPoint x="130" y="440" as="targetPoint" />
          </mxGeometry>
        </mxCell>
        <mxCell id="B0g2YOAgR8PaHLATcJr6-11" value="" style="endArrow=none;html=1;rounded=0;entryX=0.5;entryY=0;entryDx=0;entryDy=0;exitX=0.5;exitY=1;exitDx=0;exitDy=0;" parent="1" source="B0g2YOAgR8PaHLATcJr6-4" target="B0g2YOAgR8PaHLATcJr6-1" edge="1">
          <mxGeometry width="50" height="50" relative="1" as="geometry">
            <mxPoint x="180" y="400" as="sourcePoint" />
            <mxPoint x="140" y="460" as="targetPoint" />
          </mxGeometry>
        </mxCell>
        <mxCell id="B0g2YOAgR8PaHLATcJr6-12" value="" style="endArrow=none;html=1;rounded=0;entryX=0.5;entryY=0;entryDx=0;entryDy=0;exitX=0.5;exitY=1;exitDx=0;exitDy=0;" parent="1" source="B0g2YOAgR8PaHLATcJr6-5" target="B0g2YOAgR8PaHLATcJr6-1" edge="1">
          <mxGeometry width="50" height="50" relative="1" as="geometry">
            <mxPoint x="210" y="430" as="sourcePoint" />
            <mxPoint x="140" y="460" as="targetPoint" />
          </mxGeometry>
        </mxCell>
        <mxCell id="B0g2YOAgR8PaHLATcJr6-13" value="player" style="rounded=0;whiteSpace=wrap;html=1;" parent="1" vertex="1">
          <mxGeometry x="420" y="450" width="80" height="40" as="geometry" />
        </mxCell>
        <mxCell id="B0g2YOAgR8PaHLATcJr6-14" value="&lt;u&gt;id&lt;/u&gt;" style="ellipse;whiteSpace=wrap;html=1;" parent="1" vertex="1">
          <mxGeometry x="340" y="400" width="70" height="30" as="geometry" />
        </mxCell>
        <mxCell id="B0g2YOAgR8PaHLATcJr6-15" value="name" style="ellipse;whiteSpace=wrap;html=1;" parent="1" vertex="1">
          <mxGeometry x="510" y="360" width="80" height="30" as="geometry" />
        </mxCell>
        <mxCell id="B0g2YOAgR8PaHLATcJr6-16" value="salary (annual)" style="ellipse;whiteSpace=wrap;html=1;" parent="1" vertex="1">
          <mxGeometry x="540" y="410" width="80" height="30" as="geometry" />
        </mxCell>
        <mxCell id="B0g2YOAgR8PaHLATcJr6-17" value="position" style="ellipse;whiteSpace=wrap;html=1;" parent="1" vertex="1">
          <mxGeometry x="420" y="370" width="80" height="30" as="geometry" />
        </mxCell>
        <mxCell id="B0g2YOAgR8PaHLATcJr6-18" value="" style="endArrow=none;html=1;rounded=0;exitX=0.5;exitY=1;exitDx=0;exitDy=0;" parent="1" source="B0g2YOAgR8PaHLATcJr6-14" target="B0g2YOAgR8PaHLATcJr6-13" edge="1">
          <mxGeometry width="50" height="50" relative="1" as="geometry">
            <mxPoint x="410" y="430" as="sourcePoint" />
            <mxPoint x="460" y="440" as="targetPoint" />
          </mxGeometry>
        </mxCell>
        <mxCell id="B0g2YOAgR8PaHLATcJr6-19" value="" style="endArrow=none;html=1;rounded=0;entryX=0.5;entryY=0;entryDx=0;entryDy=0;exitX=0.5;exitY=1;exitDx=0;exitDy=0;" parent="1" source="B0g2YOAgR8PaHLATcJr6-17" target="B0g2YOAgR8PaHLATcJr6-13" edge="1">
          <mxGeometry width="50" height="50" relative="1" as="geometry">
            <mxPoint x="500" y="390" as="sourcePoint" />
            <mxPoint x="460" y="440" as="targetPoint" />
          </mxGeometry>
        </mxCell>
        <mxCell id="B0g2YOAgR8PaHLATcJr6-20" value="" style="endArrow=none;html=1;rounded=0;entryX=0.5;entryY=0;entryDx=0;entryDy=0;exitX=0.5;exitY=1;exitDx=0;exitDy=0;" parent="1" source="B0g2YOAgR8PaHLATcJr6-15" target="B0g2YOAgR8PaHLATcJr6-13" edge="1">
          <mxGeometry width="50" height="50" relative="1" as="geometry">
            <mxPoint x="510" y="400" as="sourcePoint" />
            <mxPoint x="470" y="460" as="targetPoint" />
          </mxGeometry>
        </mxCell>
        <mxCell id="B0g2YOAgR8PaHLATcJr6-21" value="" style="endArrow=none;html=1;rounded=0;entryX=0.5;entryY=0;entryDx=0;entryDy=0;exitX=0.5;exitY=1;exitDx=0;exitDy=0;" parent="1" source="B0g2YOAgR8PaHLATcJr6-16" target="B0g2YOAgR8PaHLATcJr6-13" edge="1">
          <mxGeometry width="50" height="50" relative="1" as="geometry">
            <mxPoint x="540" y="430" as="sourcePoint" />
            <mxPoint x="470" y="460" as="targetPoint" />
          </mxGeometry>
        </mxCell>
        <mxCell id="B0g2YOAgR8PaHLATcJr6-22" value="staff member" style="rounded=0;whiteSpace=wrap;html=1;" parent="1" vertex="1">
          <mxGeometry x="324.9" y="582.48" width="80" height="30" as="geometry" />
        </mxCell>
        <mxCell id="B0g2YOAgR8PaHLATcJr6-23" value="&lt;u&gt;id&lt;/u&gt;" style="ellipse;whiteSpace=wrap;html=1;" parent="1" vertex="1">
          <mxGeometry x="304.9" y="672.48" width="70" height="30" as="geometry" />
        </mxCell>
        <mxCell id="B0g2YOAgR8PaHLATcJr6-24" value="name" style="ellipse;whiteSpace=wrap;html=1;" parent="1" vertex="1">
          <mxGeometry x="240" y="630" width="80" height="30" as="geometry" />
        </mxCell>
        <mxCell id="B0g2YOAgR8PaHLATcJr6-25" value="salary (annual)" style="ellipse;whiteSpace=wrap;html=1;" parent="1" vertex="1">
          <mxGeometry x="394.9" y="672.48" width="80" height="30" as="geometry" />
        </mxCell>
        <mxCell id="B0g2YOAgR8PaHLATcJr6-27" value="" style="endArrow=none;html=1;rounded=0;exitX=0.5;exitY=0;exitDx=0;exitDy=0;" parent="1" source="B0g2YOAgR8PaHLATcJr6-23" target="B0g2YOAgR8PaHLATcJr6-22" edge="1">
          <mxGeometry width="50" height="50" relative="1" as="geometry">
            <mxPoint x="264.9" y="582.48" as="sourcePoint" />
            <mxPoint x="314.9" y="592.48" as="targetPoint" />
          </mxGeometry>
        </mxCell>
        <mxCell id="B0g2YOAgR8PaHLATcJr6-29" value="" style="endArrow=none;html=1;rounded=0;entryX=0.5;entryY=1;entryDx=0;entryDy=0;exitX=0.5;exitY=0;exitDx=0;exitDy=0;" parent="1" source="B0g2YOAgR8PaHLATcJr6-24" target="B0g2YOAgR8PaHLATcJr6-22" edge="1">
          <mxGeometry width="50" height="50" relative="1" as="geometry">
            <mxPoint x="484.9" y="622.48" as="sourcePoint" />
            <mxPoint x="324.9" y="612.48" as="targetPoint" />
          </mxGeometry>
        </mxCell>
        <mxCell id="B0g2YOAgR8PaHLATcJr6-30" value="" style="endArrow=none;html=1;rounded=0;entryX=0.5;entryY=1;entryDx=0;entryDy=0;exitX=0.5;exitY=0;exitDx=0;exitDy=0;" parent="1" source="B0g2YOAgR8PaHLATcJr6-25" target="B0g2YOAgR8PaHLATcJr6-22" edge="1">
          <mxGeometry width="50" height="50" relative="1" as="geometry">
            <mxPoint x="394.9" y="582.48" as="sourcePoint" />
            <mxPoint x="324.9" y="612.48" as="targetPoint" />
          </mxGeometry>
        </mxCell>
        <mxCell id="B0g2YOAgR8PaHLATcJr6-31" value="has" style="rhombus;whiteSpace=wrap;html=1;" parent="1" vertex="1">
          <mxGeometry x="260" y="455" width="60" height="30" as="geometry" />
        </mxCell>
        <mxCell id="B0g2YOAgR8PaHLATcJr6-35" value="" style="endArrow=none;html=1;rounded=0;entryX=0;entryY=0.5;entryDx=0;entryDy=0;exitX=1;exitY=0.5;exitDx=0;exitDy=0;" parent="1" source="B0g2YOAgR8PaHLATcJr6-1" target="B0g2YOAgR8PaHLATcJr6-31" edge="1">
          <mxGeometry width="50" height="50" relative="1" as="geometry">
            <mxPoint x="180" y="505" as="sourcePoint" />
            <mxPoint x="230" y="455" as="targetPoint" />
          </mxGeometry>
        </mxCell>
        <mxCell id="B0g2YOAgR8PaHLATcJr6-36" value="53.. 55" style="edgeLabel;html=1;align=center;verticalAlign=middle;resizable=0;points=[];" parent="B0g2YOAgR8PaHLATcJr6-35" vertex="1" connectable="0">
          <mxGeometry x="0.0704" y="2" relative="1" as="geometry">
            <mxPoint x="2" y="-8" as="offset" />
          </mxGeometry>
        </mxCell>
        <mxCell id="B0g2YOAgR8PaHLATcJr6-37" value="" style="endArrow=none;html=1;rounded=0;entryX=0;entryY=0.5;entryDx=0;entryDy=0;exitX=1;exitY=0.5;exitDx=0;exitDy=0;" parent="1" source="B0g2YOAgR8PaHLATcJr6-31" target="B0g2YOAgR8PaHLATcJr6-13" edge="1">
          <mxGeometry width="50" height="50" relative="1" as="geometry">
            <mxPoint x="290" y="510" as="sourcePoint" />
            <mxPoint x="340" y="460" as="targetPoint" />
          </mxGeometry>
        </mxCell>
        <mxCell id="B0g2YOAgR8PaHLATcJr6-38" value="0.. 1" style="edgeLabel;html=1;align=center;verticalAlign=middle;resizable=0;points=[];" parent="B0g2YOAgR8PaHLATcJr6-37" vertex="1" connectable="0">
          <mxGeometry x="-0.0033" relative="1" as="geometry">
            <mxPoint y="-10" as="offset" />
          </mxGeometry>
        </mxCell>
        <mxCell id="B0g2YOAgR8PaHLATcJr6-39" value="employs" style="rhombus;whiteSpace=wrap;html=1;" parent="1" vertex="1">
          <mxGeometry x="214.9" y="525" width="90" height="40" as="geometry" />
        </mxCell>
        <mxCell id="B0g2YOAgR8PaHLATcJr6-40" value="" style="endArrow=none;html=1;rounded=0;entryX=0.5;entryY=0;entryDx=0;entryDy=0;exitX=0.5;exitY=1;exitDx=0;exitDy=0;" parent="1" source="B0g2YOAgR8PaHLATcJr6-1" target="B0g2YOAgR8PaHLATcJr6-39" edge="1">
          <mxGeometry width="50" height="50" relative="1" as="geometry">
            <mxPoint x="180" y="545" as="sourcePoint" />
            <mxPoint x="240" y="530" as="targetPoint" />
          </mxGeometry>
        </mxCell>
        <mxCell id="B0g2YOAgR8PaHLATcJr6-41" value="0.. *" style="edgeLabel;html=1;align=center;verticalAlign=middle;resizable=0;points=[];" parent="B0g2YOAgR8PaHLATcJr6-40" vertex="1" connectable="0">
          <mxGeometry x="0.0704" y="2" relative="1" as="geometry">
            <mxPoint x="14" y="-8" as="offset" />
          </mxGeometry>
        </mxCell>
        <mxCell id="B0g2YOAgR8PaHLATcJr6-42" value="" style="endArrow=none;html=1;rounded=0;exitX=1;exitY=0.5;exitDx=0;exitDy=0;entryX=0.5;entryY=0;entryDx=0;entryDy=0;" parent="1" source="B0g2YOAgR8PaHLATcJr6-39" target="B0g2YOAgR8PaHLATcJr6-22" edge="1">
          <mxGeometry width="50" height="50" relative="1" as="geometry">
            <mxPoint x="374.9" y="550" as="sourcePoint" />
            <mxPoint x="379.79999999999995" y="592.48" as="targetPoint" />
          </mxGeometry>
        </mxCell>
        <mxCell id="B0g2YOAgR8PaHLATcJr6-43" value="1.. 1" style="edgeLabel;html=1;align=center;verticalAlign=middle;resizable=0;points=[];" parent="B0g2YOAgR8PaHLATcJr6-42" vertex="1" connectable="0">
          <mxGeometry x="-0.0033" relative="1" as="geometry">
            <mxPoint y="-10" as="offset" />
          </mxGeometry>
        </mxCell>
        <mxCell id="B0g2YOAgR8PaHLATcJr6-45" value="championship" style="rounded=0;whiteSpace=wrap;html=1;" parent="1" vertex="1">
          <mxGeometry x="130" y="610" width="80" height="30" as="geometry" />
        </mxCell>
        <mxCell id="B0g2YOAgR8PaHLATcJr6-46" value="score" style="ellipse;whiteSpace=wrap;html=1;" parent="1" vertex="1">
          <mxGeometry x="180" y="680" width="80" height="30" as="geometry" />
        </mxCell>
        <mxCell id="B0g2YOAgR8PaHLATcJr6-47" value="&lt;u&gt;year&lt;/u&gt;" style="ellipse;whiteSpace=wrap;html=1;" parent="1" vertex="1">
          <mxGeometry x="90" y="670" width="80" height="30" as="geometry" />
        </mxCell>
        <mxCell id="B0g2YOAgR8PaHLATcJr6-48" value="" style="endArrow=none;html=1;rounded=0;exitX=0.5;exitY=0;exitDx=0;exitDy=0;entryX=0.5;entryY=1;entryDx=0;entryDy=0;" parent="1" source="B0g2YOAgR8PaHLATcJr6-47" target="B0g2YOAgR8PaHLATcJr6-45" edge="1">
          <mxGeometry width="50" height="50" relative="1" as="geometry">
            <mxPoint x="210" y="710" as="sourcePoint" />
            <mxPoint x="210" y="640" as="targetPoint" />
          </mxGeometry>
        </mxCell>
        <mxCell id="B0g2YOAgR8PaHLATcJr6-49" value="" style="endArrow=none;html=1;rounded=0;entryX=0.5;entryY=1;entryDx=0;entryDy=0;exitX=0.5;exitY=0;exitDx=0;exitDy=0;" parent="1" source="B0g2YOAgR8PaHLATcJr6-46" target="B0g2YOAgR8PaHLATcJr6-45" edge="1">
          <mxGeometry width="50" height="50" relative="1" as="geometry">
            <mxPoint x="220" y="720" as="sourcePoint" />
            <mxPoint x="175" y="770" as="targetPoint" />
          </mxGeometry>
        </mxCell>
        <mxCell id="B0g2YOAgR8PaHLATcJr6-50" value="won" style="rhombus;whiteSpace=wrap;html=1;" parent="1" vertex="1">
          <mxGeometry x="105" y="535" width="75" height="30" as="geometry" />
        </mxCell>
        <mxCell id="B0g2YOAgR8PaHLATcJr6-51" value="" style="endArrow=none;html=1;rounded=0;entryX=0.5;entryY=0;entryDx=0;entryDy=0;exitX=0.5;exitY=1;exitDx=0;exitDy=0;" parent="1" source="B0g2YOAgR8PaHLATcJr6-1" target="B0g2YOAgR8PaHLATcJr6-50" edge="1">
          <mxGeometry width="50" height="50" relative="1" as="geometry">
            <mxPoint x="120" y="520" as="sourcePoint" />
            <mxPoint x="180" y="545" as="targetPoint" />
          </mxGeometry>
        </mxCell>
        <mxCell id="B0g2YOAgR8PaHLATcJr6-52" value="0.. *" style="edgeLabel;html=1;align=center;verticalAlign=middle;resizable=0;points=[];" parent="B0g2YOAgR8PaHLATcJr6-51" vertex="1" connectable="0">
          <mxGeometry x="0.0704" y="2" relative="1" as="geometry">
            <mxPoint x="-21" y="11" as="offset" />
          </mxGeometry>
        </mxCell>
        <mxCell id="B0g2YOAgR8PaHLATcJr6-53" value="" style="endArrow=none;html=1;rounded=0;exitX=0.5;exitY=1;exitDx=0;exitDy=0;entryX=0.5;entryY=0;entryDx=0;entryDy=0;" parent="1" source="B0g2YOAgR8PaHLATcJr6-50" target="B0g2YOAgR8PaHLATcJr6-45" edge="1">
          <mxGeometry width="50" height="50" relative="1" as="geometry">
            <mxPoint x="145" y="565" as="sourcePoint" />
            <mxPoint x="295" y="615" as="targetPoint" />
          </mxGeometry>
        </mxCell>
        <mxCell id="B0g2YOAgR8PaHLATcJr6-54" value="1.. 1" style="edgeLabel;html=1;align=center;verticalAlign=middle;resizable=0;points=[];" parent="B0g2YOAgR8PaHLATcJr6-53" vertex="1" connectable="0">
          <mxGeometry x="-0.0033" relative="1" as="geometry">
            <mxPoint x="9" y="-10" as="offset" />
          </mxGeometry>
        </mxCell>
        <mxCell id="B0g2YOAgR8PaHLATcJr6-55" value="award" style="rounded=0;whiteSpace=wrap;html=1;" parent="1" vertex="1">
          <mxGeometry x="550" y="570" width="80" height="30" as="geometry" />
        </mxCell>
        <mxCell id="B0g2YOAgR8PaHLATcJr6-56" value="name" style="ellipse;whiteSpace=wrap;html=1;" parent="1" vertex="1">
          <mxGeometry x="600" y="640" width="80" height="30" as="geometry" />
        </mxCell>
        <mxCell id="B0g2YOAgR8PaHLATcJr6-57" value="&lt;u&gt;id&lt;/u&gt;" style="ellipse;whiteSpace=wrap;html=1;" parent="1" vertex="1">
          <mxGeometry x="510" y="630" width="80" height="30" as="geometry" />
        </mxCell>
        <mxCell id="B0g2YOAgR8PaHLATcJr6-58" value="" style="endArrow=none;html=1;rounded=0;exitX=0.5;exitY=0;exitDx=0;exitDy=0;entryX=0.5;entryY=1;entryDx=0;entryDy=0;" parent="1" source="B0g2YOAgR8PaHLATcJr6-57" target="B0g2YOAgR8PaHLATcJr6-55" edge="1">
          <mxGeometry width="50" height="50" relative="1" as="geometry">
            <mxPoint x="630" y="670" as="sourcePoint" />
            <mxPoint x="630" y="600" as="targetPoint" />
          </mxGeometry>
        </mxCell>
        <mxCell id="B0g2YOAgR8PaHLATcJr6-59" value="" style="endArrow=none;html=1;rounded=0;entryX=0.5;entryY=1;entryDx=0;entryDy=0;exitX=0.5;exitY=0;exitDx=0;exitDy=0;" parent="1" source="B0g2YOAgR8PaHLATcJr6-56" target="B0g2YOAgR8PaHLATcJr6-55" edge="1">
          <mxGeometry width="50" height="50" relative="1" as="geometry">
            <mxPoint x="640" y="680" as="sourcePoint" />
            <mxPoint x="595" y="730" as="targetPoint" />
          </mxGeometry>
        </mxCell>
        <mxCell id="B0g2YOAgR8PaHLATcJr6-60" value="receives" style="rhombus;whiteSpace=wrap;html=1;" parent="1" vertex="1">
          <mxGeometry x="419.9" y="535" width="90" height="40" as="geometry" />
        </mxCell>
        <mxCell id="B0g2YOAgR8PaHLATcJr6-61" value="" style="endArrow=none;html=1;rounded=0;entryX=0.5;entryY=0;entryDx=0;entryDy=0;exitX=0.5;exitY=1;exitDx=0;exitDy=0;" parent="1" source="B0g2YOAgR8PaHLATcJr6-13" target="B0g2YOAgR8PaHLATcJr6-60" edge="1">
          <mxGeometry width="50" height="50" relative="1" as="geometry">
            <mxPoint x="340" y="490" as="sourcePoint" />
            <mxPoint x="445" y="540" as="targetPoint" />
          </mxGeometry>
        </mxCell>
        <mxCell id="B0g2YOAgR8PaHLATcJr6-62" value="0.. *" style="edgeLabel;html=1;align=center;verticalAlign=middle;resizable=0;points=[];" parent="B0g2YOAgR8PaHLATcJr6-61" vertex="1" connectable="0">
          <mxGeometry x="0.0704" y="2" relative="1" as="geometry">
            <mxPoint x="14" y="-8" as="offset" />
          </mxGeometry>
        </mxCell>
        <mxCell id="B0g2YOAgR8PaHLATcJr6-63" value="" style="endArrow=none;html=1;rounded=0;exitX=1;exitY=0.5;exitDx=0;exitDy=0;entryX=0.5;entryY=0;entryDx=0;entryDy=0;" parent="1" source="B0g2YOAgR8PaHLATcJr6-60" target="B0g2YOAgR8PaHLATcJr6-55" edge="1">
          <mxGeometry width="50" height="50" relative="1" as="geometry">
            <mxPoint x="579.9" y="560" as="sourcePoint" />
            <mxPoint x="570" y="592" as="targetPoint" />
          </mxGeometry>
        </mxCell>
        <mxCell id="B0g2YOAgR8PaHLATcJr6-64" value="1.. *" style="edgeLabel;html=1;align=center;verticalAlign=middle;resizable=0;points=[];" parent="B0g2YOAgR8PaHLATcJr6-63" vertex="1" connectable="0">
          <mxGeometry x="-0.0033" relative="1" as="geometry">
            <mxPoint y="-10" as="offset" />
          </mxGeometry>
        </mxCell>
        <mxCell id="B0g2YOAgR8PaHLATcJr6-65" value="year" style="ellipse;whiteSpace=wrap;html=1;" parent="1" vertex="1">
          <mxGeometry x="550" y="490" width="80" height="30" as="geometry" />
        </mxCell>
        <mxCell id="B0g2YOAgR8PaHLATcJr6-66" value="" style="endArrow=none;html=1;rounded=0;exitX=0.5;exitY=1;exitDx=0;exitDy=0;entryX=1;entryY=0;entryDx=0;entryDy=0;" parent="1" source="B0g2YOAgR8PaHLATcJr6-65" target="B0g2YOAgR8PaHLATcJr6-60" edge="1">
          <mxGeometry width="50" height="50" relative="1" as="geometry">
            <mxPoint x="670" y="530" as="sourcePoint" />
            <mxPoint x="630" y="460" as="targetPoint" />
          </mxGeometry>
        </mxCell>
      </root>
    </mxGraphModel>
  </diagram>
  <diagram name="Copy of Page-1" id="Ts7o_PSbGsKfgg4RdyGm">
    <mxGraphModel dx="1208" dy="719" grid="1" gridSize="10" guides="1" tooltips="1" connect="1" arrows="1" fold="1" page="1" pageScale="1" pageWidth="850" pageHeight="1100" math="0" shadow="0" extFonts="Permanent Marker^https://fonts.googleapis.com/css?family=Permanent+Marker">
      <root>
        <mxCell id="AUuaIkKfw29LaKgNubXn-0" />
        <mxCell id="AUuaIkKfw29LaKgNubXn-1" parent="AUuaIkKfw29LaKgNubXn-0" />
        <mxCell id="AUuaIkKfw29LaKgNubXn-2" value="team" style="rounded=0;whiteSpace=wrap;html=1;" vertex="1" parent="AUuaIkKfw29LaKgNubXn-1">
          <mxGeometry x="100" y="450" width="70" height="30" as="geometry" />
        </mxCell>
        <mxCell id="AUuaIkKfw29LaKgNubXn-3" value="&lt;u&gt;id&lt;/u&gt;" style="ellipse;whiteSpace=wrap;html=1;" vertex="1" parent="AUuaIkKfw29LaKgNubXn-1">
          <mxGeometry x="10" y="400" width="70" height="30" as="geometry" />
        </mxCell>
        <mxCell id="AUuaIkKfw29LaKgNubXn-4" value="name" style="ellipse;whiteSpace=wrap;html=1;" vertex="1" parent="AUuaIkKfw29LaKgNubXn-1">
          <mxGeometry x="180" y="360" width="80" height="30" as="geometry" />
        </mxCell>
        <mxCell id="AUuaIkKfw29LaKgNubXn-5" value="city" style="ellipse;whiteSpace=wrap;html=1;" vertex="1" parent="AUuaIkKfw29LaKgNubXn-1">
          <mxGeometry x="210" y="410" width="80" height="30" as="geometry" />
        </mxCell>
        <mxCell id="AUuaIkKfw29LaKgNubXn-6" value="homeport" style="ellipse;whiteSpace=wrap;html=1;" vertex="1" parent="AUuaIkKfw29LaKgNubXn-1">
          <mxGeometry x="90" y="370" width="80" height="30" as="geometry" />
        </mxCell>
        <mxCell id="AUuaIkKfw29LaKgNubXn-7" value="" style="endArrow=none;html=1;rounded=0;exitX=0.5;exitY=1;exitDx=0;exitDy=0;" edge="1" parent="AUuaIkKfw29LaKgNubXn-1" source="AUuaIkKfw29LaKgNubXn-3" target="AUuaIkKfw29LaKgNubXn-2">
          <mxGeometry width="50" height="50" relative="1" as="geometry">
            <mxPoint x="80" y="430" as="sourcePoint" />
            <mxPoint x="130" y="440" as="targetPoint" />
          </mxGeometry>
        </mxCell>
        <mxCell id="AUuaIkKfw29LaKgNubXn-8" value="" style="endArrow=none;html=1;rounded=0;entryX=0.5;entryY=0;entryDx=0;entryDy=0;exitX=0.5;exitY=1;exitDx=0;exitDy=0;" edge="1" parent="AUuaIkKfw29LaKgNubXn-1" source="AUuaIkKfw29LaKgNubXn-6" target="AUuaIkKfw29LaKgNubXn-2">
          <mxGeometry width="50" height="50" relative="1" as="geometry">
            <mxPoint x="170" y="390" as="sourcePoint" />
            <mxPoint x="130" y="440" as="targetPoint" />
          </mxGeometry>
        </mxCell>
        <mxCell id="AUuaIkKfw29LaKgNubXn-9" value="" style="endArrow=none;html=1;rounded=0;entryX=0.5;entryY=0;entryDx=0;entryDy=0;exitX=0.5;exitY=1;exitDx=0;exitDy=0;" edge="1" parent="AUuaIkKfw29LaKgNubXn-1" source="AUuaIkKfw29LaKgNubXn-4" target="AUuaIkKfw29LaKgNubXn-2">
          <mxGeometry width="50" height="50" relative="1" as="geometry">
            <mxPoint x="180" y="400" as="sourcePoint" />
            <mxPoint x="140" y="460" as="targetPoint" />
          </mxGeometry>
        </mxCell>
        <mxCell id="AUuaIkKfw29LaKgNubXn-10" value="" style="endArrow=none;html=1;rounded=0;entryX=0.5;entryY=0;entryDx=0;entryDy=0;exitX=0.5;exitY=1;exitDx=0;exitDy=0;" edge="1" parent="AUuaIkKfw29LaKgNubXn-1" source="AUuaIkKfw29LaKgNubXn-5" target="AUuaIkKfw29LaKgNubXn-2">
          <mxGeometry width="50" height="50" relative="1" as="geometry">
            <mxPoint x="210" y="430" as="sourcePoint" />
            <mxPoint x="140" y="460" as="targetPoint" />
          </mxGeometry>
        </mxCell>
        <mxCell id="AUuaIkKfw29LaKgNubXn-11" value="player" style="rounded=0;whiteSpace=wrap;html=1;" vertex="1" parent="AUuaIkKfw29LaKgNubXn-1">
          <mxGeometry x="420" y="450" width="80" height="40" as="geometry" />
        </mxCell>
        <mxCell id="AUuaIkKfw29LaKgNubXn-12" value="&lt;u&gt;id&lt;/u&gt;" style="ellipse;whiteSpace=wrap;html=1;" vertex="1" parent="AUuaIkKfw29LaKgNubXn-1">
          <mxGeometry x="340" y="400" width="70" height="30" as="geometry" />
        </mxCell>
        <mxCell id="AUuaIkKfw29LaKgNubXn-13" value="name" style="ellipse;whiteSpace=wrap;html=1;" vertex="1" parent="AUuaIkKfw29LaKgNubXn-1">
          <mxGeometry x="510" y="360" width="80" height="30" as="geometry" />
        </mxCell>
        <mxCell id="AUuaIkKfw29LaKgNubXn-14" value="salary (annual)" style="ellipse;whiteSpace=wrap;html=1;" vertex="1" parent="AUuaIkKfw29LaKgNubXn-1">
          <mxGeometry x="540" y="410" width="80" height="30" as="geometry" />
        </mxCell>
        <mxCell id="AUuaIkKfw29LaKgNubXn-15" value="position" style="ellipse;whiteSpace=wrap;html=1;" vertex="1" parent="AUuaIkKfw29LaKgNubXn-1">
          <mxGeometry x="420" y="370" width="80" height="30" as="geometry" />
        </mxCell>
        <mxCell id="AUuaIkKfw29LaKgNubXn-16" value="" style="endArrow=none;html=1;rounded=0;exitX=0.5;exitY=1;exitDx=0;exitDy=0;" edge="1" parent="AUuaIkKfw29LaKgNubXn-1" source="AUuaIkKfw29LaKgNubXn-12" target="AUuaIkKfw29LaKgNubXn-11">
          <mxGeometry width="50" height="50" relative="1" as="geometry">
            <mxPoint x="410" y="430" as="sourcePoint" />
            <mxPoint x="460" y="440" as="targetPoint" />
          </mxGeometry>
        </mxCell>
        <mxCell id="AUuaIkKfw29LaKgNubXn-17" value="" style="endArrow=none;html=1;rounded=0;entryX=0.5;entryY=0;entryDx=0;entryDy=0;exitX=0.5;exitY=1;exitDx=0;exitDy=0;" edge="1" parent="AUuaIkKfw29LaKgNubXn-1" source="AUuaIkKfw29LaKgNubXn-15" target="AUuaIkKfw29LaKgNubXn-11">
          <mxGeometry width="50" height="50" relative="1" as="geometry">
            <mxPoint x="500" y="390" as="sourcePoint" />
            <mxPoint x="460" y="440" as="targetPoint" />
          </mxGeometry>
        </mxCell>
        <mxCell id="AUuaIkKfw29LaKgNubXn-18" value="" style="endArrow=none;html=1;rounded=0;entryX=0.5;entryY=0;entryDx=0;entryDy=0;exitX=0.5;exitY=1;exitDx=0;exitDy=0;" edge="1" parent="AUuaIkKfw29LaKgNubXn-1" source="AUuaIkKfw29LaKgNubXn-13" target="AUuaIkKfw29LaKgNubXn-11">
          <mxGeometry width="50" height="50" relative="1" as="geometry">
            <mxPoint x="510" y="400" as="sourcePoint" />
            <mxPoint x="470" y="460" as="targetPoint" />
          </mxGeometry>
        </mxCell>
        <mxCell id="AUuaIkKfw29LaKgNubXn-19" value="" style="endArrow=none;html=1;rounded=0;entryX=0.5;entryY=0;entryDx=0;entryDy=0;exitX=0.5;exitY=1;exitDx=0;exitDy=0;" edge="1" parent="AUuaIkKfw29LaKgNubXn-1" source="AUuaIkKfw29LaKgNubXn-14" target="AUuaIkKfw29LaKgNubXn-11">
          <mxGeometry width="50" height="50" relative="1" as="geometry">
            <mxPoint x="540" y="430" as="sourcePoint" />
            <mxPoint x="470" y="460" as="targetPoint" />
          </mxGeometry>
        </mxCell>
        <mxCell id="AUuaIkKfw29LaKgNubXn-20" value="staff member" style="rounded=0;whiteSpace=wrap;html=1;" vertex="1" parent="AUuaIkKfw29LaKgNubXn-1">
          <mxGeometry x="324.9" y="582.48" width="80" height="30" as="geometry" />
        </mxCell>
        <mxCell id="AUuaIkKfw29LaKgNubXn-21" value="&lt;u&gt;id&lt;/u&gt;" style="ellipse;whiteSpace=wrap;html=1;" vertex="1" parent="AUuaIkKfw29LaKgNubXn-1">
          <mxGeometry x="304.9" y="672.48" width="70" height="30" as="geometry" />
        </mxCell>
        <mxCell id="AUuaIkKfw29LaKgNubXn-22" value="name" style="ellipse;whiteSpace=wrap;html=1;" vertex="1" parent="AUuaIkKfw29LaKgNubXn-1">
          <mxGeometry x="240" y="630" width="80" height="30" as="geometry" />
        </mxCell>
        <mxCell id="AUuaIkKfw29LaKgNubXn-23" value="salary (annual)" style="ellipse;whiteSpace=wrap;html=1;" vertex="1" parent="AUuaIkKfw29LaKgNubXn-1">
          <mxGeometry x="394.9" y="672.48" width="80" height="30" as="geometry" />
        </mxCell>
        <mxCell id="AUuaIkKfw29LaKgNubXn-24" value="" style="endArrow=none;html=1;rounded=0;exitX=0.5;exitY=0;exitDx=0;exitDy=0;" edge="1" parent="AUuaIkKfw29LaKgNubXn-1" source="AUuaIkKfw29LaKgNubXn-21" target="AUuaIkKfw29LaKgNubXn-20">
          <mxGeometry width="50" height="50" relative="1" as="geometry">
            <mxPoint x="264.9" y="582.48" as="sourcePoint" />
            <mxPoint x="314.9" y="592.48" as="targetPoint" />
          </mxGeometry>
        </mxCell>
        <mxCell id="AUuaIkKfw29LaKgNubXn-25" value="" style="endArrow=none;html=1;rounded=0;entryX=0.5;entryY=1;entryDx=0;entryDy=0;exitX=0.5;exitY=0;exitDx=0;exitDy=0;" edge="1" parent="AUuaIkKfw29LaKgNubXn-1" source="AUuaIkKfw29LaKgNubXn-22" target="AUuaIkKfw29LaKgNubXn-20">
          <mxGeometry width="50" height="50" relative="1" as="geometry">
            <mxPoint x="484.9" y="622.48" as="sourcePoint" />
            <mxPoint x="324.9" y="612.48" as="targetPoint" />
          </mxGeometry>
        </mxCell>
        <mxCell id="AUuaIkKfw29LaKgNubXn-26" value="" style="endArrow=none;html=1;rounded=0;entryX=0.5;entryY=1;entryDx=0;entryDy=0;exitX=0.5;exitY=0;exitDx=0;exitDy=0;" edge="1" parent="AUuaIkKfw29LaKgNubXn-1" source="AUuaIkKfw29LaKgNubXn-23" target="AUuaIkKfw29LaKgNubXn-20">
          <mxGeometry width="50" height="50" relative="1" as="geometry">
            <mxPoint x="394.9" y="582.48" as="sourcePoint" />
            <mxPoint x="324.9" y="612.48" as="targetPoint" />
          </mxGeometry>
        </mxCell>
        <mxCell id="AUuaIkKfw29LaKgNubXn-27" value="has" style="rhombus;whiteSpace=wrap;html=1;" vertex="1" parent="AUuaIkKfw29LaKgNubXn-1">
          <mxGeometry x="260" y="455" width="60" height="30" as="geometry" />
        </mxCell>
        <mxCell id="AUuaIkKfw29LaKgNubXn-28" value="" style="endArrow=none;html=1;rounded=0;entryX=0;entryY=0.5;entryDx=0;entryDy=0;exitX=1;exitY=0.5;exitDx=0;exitDy=0;" edge="1" parent="AUuaIkKfw29LaKgNubXn-1" source="AUuaIkKfw29LaKgNubXn-2" target="AUuaIkKfw29LaKgNubXn-27">
          <mxGeometry width="50" height="50" relative="1" as="geometry">
            <mxPoint x="180" y="505" as="sourcePoint" />
            <mxPoint x="230" y="455" as="targetPoint" />
          </mxGeometry>
        </mxCell>
        <mxCell id="AUuaIkKfw29LaKgNubXn-29" value="53.. 55" style="edgeLabel;html=1;align=center;verticalAlign=middle;resizable=0;points=[];" vertex="1" connectable="0" parent="AUuaIkKfw29LaKgNubXn-28">
          <mxGeometry x="0.0704" y="2" relative="1" as="geometry">
            <mxPoint x="2" y="-8" as="offset" />
          </mxGeometry>
        </mxCell>
        <mxCell id="AUuaIkKfw29LaKgNubXn-30" value="" style="endArrow=none;html=1;rounded=0;entryX=0;entryY=0.5;entryDx=0;entryDy=0;exitX=1;exitY=0.5;exitDx=0;exitDy=0;" edge="1" parent="AUuaIkKfw29LaKgNubXn-1" source="AUuaIkKfw29LaKgNubXn-27" target="AUuaIkKfw29LaKgNubXn-11">
          <mxGeometry width="50" height="50" relative="1" as="geometry">
            <mxPoint x="290" y="510" as="sourcePoint" />
            <mxPoint x="340" y="460" as="targetPoint" />
          </mxGeometry>
        </mxCell>
        <mxCell id="AUuaIkKfw29LaKgNubXn-31" value="0.. 1" style="edgeLabel;html=1;align=center;verticalAlign=middle;resizable=0;points=[];" vertex="1" connectable="0" parent="AUuaIkKfw29LaKgNubXn-30">
          <mxGeometry x="-0.0033" relative="1" as="geometry">
            <mxPoint y="-10" as="offset" />
          </mxGeometry>
        </mxCell>
        <mxCell id="AUuaIkKfw29LaKgNubXn-32" value="employs" style="rhombus;whiteSpace=wrap;html=1;" vertex="1" parent="AUuaIkKfw29LaKgNubXn-1">
          <mxGeometry x="214.9" y="525" width="90" height="40" as="geometry" />
        </mxCell>
        <mxCell id="AUuaIkKfw29LaKgNubXn-33" value="" style="endArrow=none;html=1;rounded=0;entryX=0.5;entryY=0;entryDx=0;entryDy=0;exitX=0.5;exitY=1;exitDx=0;exitDy=0;" edge="1" parent="AUuaIkKfw29LaKgNubXn-1" source="AUuaIkKfw29LaKgNubXn-2" target="AUuaIkKfw29LaKgNubXn-32">
          <mxGeometry width="50" height="50" relative="1" as="geometry">
            <mxPoint x="180" y="545" as="sourcePoint" />
            <mxPoint x="240" y="530" as="targetPoint" />
          </mxGeometry>
        </mxCell>
        <mxCell id="AUuaIkKfw29LaKgNubXn-34" value="0.. *" style="edgeLabel;html=1;align=center;verticalAlign=middle;resizable=0;points=[];" vertex="1" connectable="0" parent="AUuaIkKfw29LaKgNubXn-33">
          <mxGeometry x="0.0704" y="2" relative="1" as="geometry">
            <mxPoint x="14" y="-8" as="offset" />
          </mxGeometry>
        </mxCell>
        <mxCell id="AUuaIkKfw29LaKgNubXn-35" value="" style="endArrow=none;html=1;rounded=0;exitX=1;exitY=0.5;exitDx=0;exitDy=0;entryX=0.5;entryY=0;entryDx=0;entryDy=0;" edge="1" parent="AUuaIkKfw29LaKgNubXn-1" source="AUuaIkKfw29LaKgNubXn-32" target="AUuaIkKfw29LaKgNubXn-20">
          <mxGeometry width="50" height="50" relative="1" as="geometry">
            <mxPoint x="374.9" y="550" as="sourcePoint" />
            <mxPoint x="379.79999999999995" y="592.48" as="targetPoint" />
          </mxGeometry>
        </mxCell>
        <mxCell id="AUuaIkKfw29LaKgNubXn-36" value="1.. 1" style="edgeLabel;html=1;align=center;verticalAlign=middle;resizable=0;points=[];" vertex="1" connectable="0" parent="AUuaIkKfw29LaKgNubXn-35">
          <mxGeometry x="-0.0033" relative="1" as="geometry">
            <mxPoint y="-10" as="offset" />
          </mxGeometry>
        </mxCell>
        <mxCell id="AUuaIkKfw29LaKgNubXn-37" value="championship" style="rounded=0;whiteSpace=wrap;html=1;" vertex="1" parent="AUuaIkKfw29LaKgNubXn-1">
          <mxGeometry x="130" y="610" width="80" height="30" as="geometry" />
        </mxCell>
        <mxCell id="AUuaIkKfw29LaKgNubXn-38" value="score" style="ellipse;whiteSpace=wrap;html=1;" vertex="1" parent="AUuaIkKfw29LaKgNubXn-1">
          <mxGeometry x="180" y="680" width="80" height="30" as="geometry" />
        </mxCell>
        <mxCell id="AUuaIkKfw29LaKgNubXn-39" value="&lt;u&gt;year&lt;/u&gt;" style="ellipse;whiteSpace=wrap;html=1;" vertex="1" parent="AUuaIkKfw29LaKgNubXn-1">
          <mxGeometry x="90" y="670" width="80" height="30" as="geometry" />
        </mxCell>
        <mxCell id="AUuaIkKfw29LaKgNubXn-40" value="" style="endArrow=none;html=1;rounded=0;exitX=0.5;exitY=0;exitDx=0;exitDy=0;entryX=0.5;entryY=1;entryDx=0;entryDy=0;" edge="1" parent="AUuaIkKfw29LaKgNubXn-1" source="AUuaIkKfw29LaKgNubXn-39" target="AUuaIkKfw29LaKgNubXn-37">
          <mxGeometry width="50" height="50" relative="1" as="geometry">
            <mxPoint x="210" y="710" as="sourcePoint" />
            <mxPoint x="210" y="640" as="targetPoint" />
          </mxGeometry>
        </mxCell>
        <mxCell id="AUuaIkKfw29LaKgNubXn-41" value="" style="endArrow=none;html=1;rounded=0;entryX=0.5;entryY=1;entryDx=0;entryDy=0;exitX=0.5;exitY=0;exitDx=0;exitDy=0;" edge="1" parent="AUuaIkKfw29LaKgNubXn-1" source="AUuaIkKfw29LaKgNubXn-38" target="AUuaIkKfw29LaKgNubXn-37">
          <mxGeometry width="50" height="50" relative="1" as="geometry">
            <mxPoint x="220" y="720" as="sourcePoint" />
            <mxPoint x="175" y="770" as="targetPoint" />
          </mxGeometry>
        </mxCell>
        <mxCell id="AUuaIkKfw29LaKgNubXn-42" value="won" style="rhombus;whiteSpace=wrap;html=1;" vertex="1" parent="AUuaIkKfw29LaKgNubXn-1">
          <mxGeometry x="105" y="535" width="75" height="30" as="geometry" />
        </mxCell>
        <mxCell id="AUuaIkKfw29LaKgNubXn-43" value="" style="endArrow=none;html=1;rounded=0;entryX=0.5;entryY=0;entryDx=0;entryDy=0;exitX=0.5;exitY=1;exitDx=0;exitDy=0;" edge="1" parent="AUuaIkKfw29LaKgNubXn-1" source="AUuaIkKfw29LaKgNubXn-2" target="AUuaIkKfw29LaKgNubXn-42">
          <mxGeometry width="50" height="50" relative="1" as="geometry">
            <mxPoint x="120" y="520" as="sourcePoint" />
            <mxPoint x="180" y="545" as="targetPoint" />
          </mxGeometry>
        </mxCell>
        <mxCell id="AUuaIkKfw29LaKgNubXn-44" value="0.. *" style="edgeLabel;html=1;align=center;verticalAlign=middle;resizable=0;points=[];" vertex="1" connectable="0" parent="AUuaIkKfw29LaKgNubXn-43">
          <mxGeometry x="0.0704" y="2" relative="1" as="geometry">
            <mxPoint x="-21" y="11" as="offset" />
          </mxGeometry>
        </mxCell>
        <mxCell id="AUuaIkKfw29LaKgNubXn-45" value="" style="endArrow=none;html=1;rounded=0;exitX=0.5;exitY=1;exitDx=0;exitDy=0;entryX=0.5;entryY=0;entryDx=0;entryDy=0;" edge="1" parent="AUuaIkKfw29LaKgNubXn-1" source="AUuaIkKfw29LaKgNubXn-42" target="AUuaIkKfw29LaKgNubXn-37">
          <mxGeometry width="50" height="50" relative="1" as="geometry">
            <mxPoint x="145" y="565" as="sourcePoint" />
            <mxPoint x="295" y="615" as="targetPoint" />
          </mxGeometry>
        </mxCell>
        <mxCell id="AUuaIkKfw29LaKgNubXn-46" value="1.. 1" style="edgeLabel;html=1;align=center;verticalAlign=middle;resizable=0;points=[];" vertex="1" connectable="0" parent="AUuaIkKfw29LaKgNubXn-45">
          <mxGeometry x="-0.0033" relative="1" as="geometry">
            <mxPoint x="9" y="-10" as="offset" />
          </mxGeometry>
        </mxCell>
        <mxCell id="AUuaIkKfw29LaKgNubXn-47" value="award" style="rounded=0;whiteSpace=wrap;html=1;" vertex="1" parent="AUuaIkKfw29LaKgNubXn-1">
          <mxGeometry x="550" y="570" width="80" height="30" as="geometry" />
        </mxCell>
        <mxCell id="AUuaIkKfw29LaKgNubXn-48" value="name" style="ellipse;whiteSpace=wrap;html=1;" vertex="1" parent="AUuaIkKfw29LaKgNubXn-1">
          <mxGeometry x="600" y="640" width="80" height="30" as="geometry" />
        </mxCell>
        <mxCell id="AUuaIkKfw29LaKgNubXn-49" value="&lt;u&gt;id&lt;/u&gt;" style="ellipse;whiteSpace=wrap;html=1;" vertex="1" parent="AUuaIkKfw29LaKgNubXn-1">
          <mxGeometry x="510" y="630" width="80" height="30" as="geometry" />
        </mxCell>
        <mxCell id="AUuaIkKfw29LaKgNubXn-50" value="" style="endArrow=none;html=1;rounded=0;exitX=0.5;exitY=0;exitDx=0;exitDy=0;entryX=0.5;entryY=1;entryDx=0;entryDy=0;" edge="1" parent="AUuaIkKfw29LaKgNubXn-1" source="AUuaIkKfw29LaKgNubXn-49" target="AUuaIkKfw29LaKgNubXn-47">
          <mxGeometry width="50" height="50" relative="1" as="geometry">
            <mxPoint x="630" y="670" as="sourcePoint" />
            <mxPoint x="630" y="600" as="targetPoint" />
          </mxGeometry>
        </mxCell>
        <mxCell id="AUuaIkKfw29LaKgNubXn-51" value="" style="endArrow=none;html=1;rounded=0;entryX=0.5;entryY=1;entryDx=0;entryDy=0;exitX=0.5;exitY=0;exitDx=0;exitDy=0;" edge="1" parent="AUuaIkKfw29LaKgNubXn-1" source="AUuaIkKfw29LaKgNubXn-48" target="AUuaIkKfw29LaKgNubXn-47">
          <mxGeometry width="50" height="50" relative="1" as="geometry">
            <mxPoint x="640" y="680" as="sourcePoint" />
            <mxPoint x="595" y="730" as="targetPoint" />
          </mxGeometry>
        </mxCell>
        <mxCell id="AUuaIkKfw29LaKgNubXn-52" value="receives" style="rhombus;whiteSpace=wrap;html=1;" vertex="1" parent="AUuaIkKfw29LaKgNubXn-1">
          <mxGeometry x="419.9" y="535" width="90" height="40" as="geometry" />
        </mxCell>
        <mxCell id="AUuaIkKfw29LaKgNubXn-53" value="" style="endArrow=none;html=1;rounded=0;entryX=0.5;entryY=0;entryDx=0;entryDy=0;exitX=0.5;exitY=1;exitDx=0;exitDy=0;" edge="1" parent="AUuaIkKfw29LaKgNubXn-1" source="AUuaIkKfw29LaKgNubXn-11" target="AUuaIkKfw29LaKgNubXn-52">
          <mxGeometry width="50" height="50" relative="1" as="geometry">
            <mxPoint x="340" y="490" as="sourcePoint" />
            <mxPoint x="445" y="540" as="targetPoint" />
          </mxGeometry>
        </mxCell>
        <mxCell id="AUuaIkKfw29LaKgNubXn-54" value="0.. *" style="edgeLabel;html=1;align=center;verticalAlign=middle;resizable=0;points=[];" vertex="1" connectable="0" parent="AUuaIkKfw29LaKgNubXn-53">
          <mxGeometry x="0.0704" y="2" relative="1" as="geometry">
            <mxPoint x="14" y="-8" as="offset" />
          </mxGeometry>
        </mxCell>
        <mxCell id="AUuaIkKfw29LaKgNubXn-55" value="" style="endArrow=none;html=1;rounded=0;exitX=1;exitY=0.5;exitDx=0;exitDy=0;entryX=0.5;entryY=0;entryDx=0;entryDy=0;" edge="1" parent="AUuaIkKfw29LaKgNubXn-1" source="AUuaIkKfw29LaKgNubXn-52" target="AUuaIkKfw29LaKgNubXn-47">
          <mxGeometry width="50" height="50" relative="1" as="geometry">
            <mxPoint x="579.9" y="560" as="sourcePoint" />
            <mxPoint x="570" y="592" as="targetPoint" />
          </mxGeometry>
        </mxCell>
        <mxCell id="AUuaIkKfw29LaKgNubXn-56" value="1.. *" style="edgeLabel;html=1;align=center;verticalAlign=middle;resizable=0;points=[];" vertex="1" connectable="0" parent="AUuaIkKfw29LaKgNubXn-55">
          <mxGeometry x="-0.0033" relative="1" as="geometry">
            <mxPoint y="-10" as="offset" />
          </mxGeometry>
        </mxCell>
        <mxCell id="AUuaIkKfw29LaKgNubXn-57" value="year" style="ellipse;whiteSpace=wrap;html=1;" vertex="1" parent="AUuaIkKfw29LaKgNubXn-1">
          <mxGeometry x="550" y="490" width="80" height="30" as="geometry" />
        </mxCell>
        <mxCell id="AUuaIkKfw29LaKgNubXn-58" value="" style="endArrow=none;html=1;rounded=0;exitX=0.5;exitY=1;exitDx=0;exitDy=0;entryX=1;entryY=0;entryDx=0;entryDy=0;" edge="1" parent="AUuaIkKfw29LaKgNubXn-1" source="AUuaIkKfw29LaKgNubXn-57" target="AUuaIkKfw29LaKgNubXn-52">
          <mxGeometry width="50" height="50" relative="1" as="geometry">
            <mxPoint x="670" y="530" as="sourcePoint" />
            <mxPoint x="630" y="460" as="targetPoint" />
          </mxGeometry>
        </mxCell>
      </root>
    </mxGraphModel>
  </diagram>
</mxfile>
